<svg width="24" height="24" viewBox="0 0 24 24" fill="none" xmlns="http://www.w3.org/2000/svg">
<path d="M12.451 2H13.8V3.86101H20.614C21.0087 3.82755 21.4047 3.90918 21.754 4.09602C21.9353 4.46023 22.0164 4.86611 21.989 5.27202C21.9763 9.31267 21.9763 13.3503 21.989 17.385C22.0325 18.0642 22.0063 18.7461 21.911 19.42C21.822 19.905 21.253 19.92 20.875 19.933H13.812V22H12.4C8.92902 21.365 5.46301 20.769 2 20.148V3.86401C5.48502 3.242 8.969 2.63101 12.451 2.00002V2Z" fill="#207245"/>
<path d="M13.748 4.57301H21.2871V19.203H13.748V17.81H15.5761V16.185H13.748V15.246H15.5761V13.63H13.748V12.702H15.5761V11.074H13.748V10.135H15.5761V8.52101H13.748V7.58201H15.5761V5.96297H13.748V4.57301Z" fill="white"/>
<path d="M16.4888 5.95399H19.6888V7.59H16.4888L16.4888 5.95399Z" fill="#207245"/>
<path d="M8.76487 8.118C9.28355 8.08 9.80155 8.04666 10.3189 8.01799C9.70888 9.29666 9.09487 10.5743 8.47687 11.851C9.10387 13.159 9.74688 14.451 10.3689 15.769L8.71387 15.663C8.27933 14.7054 7.89874 13.7242 7.57388 12.724C7.26389 13.67 6.81989 14.571 6.46289 15.5C5.96288 15.5 5.46288 15.472 4.96289 15.45C5.54888 14.268 6.11688 13.085 6.72187 11.92C6.20688 10.72 5.64389 9.53599 5.11388 8.33801L6.61987 8.25101C6.96089 9.16601 7.32888 10.067 7.61288 11.006C7.92989 10.006 8.38387 9.07601 8.76487 8.11601V8.118Z" fill="white"/>
<path d="M16.4888 8.487H19.6888V10.123H16.4888L16.4888 8.487ZM16.4888 11.057H19.6888V12.696H16.4888L16.4888 11.057ZM16.4888 13.63H19.6888V15.266H16.4888L16.4888 13.63ZM16.4888 16.203H19.6888V17.839H16.4888L16.4888 16.203Z" fill="#207245"/>
</svg>
